<svg width="1920" height="150" viewBox="0 0 1920 150" fill="none" xmlns="http://www.w3.org/2000/svg">
<path d="M-69 143.486C-68.6338 143.638 -68.2427 143.808 -67.7895 144.02C-60.2242 141.285 -58.5229 142.664 -56.0271 143.964C-51.3548 143.864 -51.8385 148.366 -46.7085 145.187C-38.0636 140.974 -43.8758 139.017 -39.1778 143.186C-33.2705 138.551 -30.4292 145.12 -27.9506 141.596C-27.2425 145.22 -22.0607 141.374 -19.3489 138.395C-14.4436 141.963 -11.4553 132.992 -8.36363 136.094C-4.47731 139.017 -0.487373 131.436 3.23483 136.261C6.97433 138.395 9.23704 137.383 12.9851 137.383C16.2756 137.583 19.5573 136.95 22.8477 140.129C26.1468 140.618 29.4372 142.141 32.7276 142.841C36.6225 147.555 40.6384 149.534 44.7665 144.509C47.0983 142.419 48.8947 147.41 51.5977 140.863C53.515 133.27 55.4496 141.874 57.3754 140.474C60.709 140.785 64.0512 139.618 67.4108 138.684C72.2988 136.249 75.8311 137.406 80.6156 136.816C86.4794 135.838 90.435 136.405 96.4458 135.071C103.407 134.437 106.74 136.894 112.181 140.496C114.841 142.664 118.019 142.775 121.517 144.231C122.087 134.415 121.448 146.143 122.847 134.738C126.094 139.162 129.471 134.949 132.856 135.349C136.242 138.45 139.636 137.094 142.926 135.16C143.971 139.862 146.976 131.447 148.211 135.282C151.329 133.215 154.196 140.618 157.107 132.092C160.026 127.478 162.979 130.958 166.27 128.824C167.919 131.247 169.379 125.578 171.002 128.501C176.987 130.369 180.114 129.001 185.097 131.014C188.594 136.194 192.247 130.48 195.944 136.127C199.64 139.129 203.38 147.61 207.059 140.652L207.119 140.598C208.777 139.127 209.86 138.167 211.541 143.219C216.058 144.742 221.637 144.253 226.257 144.209C230.368 146.054 228.839 148.144 233.572 146.232C239.142 145.309 244.713 155.17 250.274 146.21C254.325 148.911 258.626 144.02 262.426 146.51C267.072 142.43 271.727 149.367 276.382 146.321C280.991 147.52 285.743 147.501 290.346 146.265C294.06 148.644 296.884 149.723 299.976 144.298C301.384 144.598 302.852 139.495 304.441 141.974C307.654 141.596 312.222 141.752 315.642 141.274C320.824 136.105 326.126 130.202 331.256 139.829C334.141 144.709 333.588 137.339 335.721 137.984C338.373 132.77 340.221 136.95 343.287 135.104C347.328 145.943 351.577 131.169 355.68 131.758C361.552 133.359 367.779 137.95 373.375 132.87C378.868 137.483 384.861 137.972 390.665 137.439C393.489 131.647 394.862 138.662 397.6 138.528C400.579 137.995 403.11 137.606 406.4 141.63C412.687 143.564 417.221 144.42 424.087 146.254C429.45 142.063 434.822 146.321 440.185 146.21C444.459 149.8 448.88 149.736 452.79 148.743C453.156 148.896 453.617 144.423 454.07 144.635C461.636 141.9 462.547 142.664 465.043 143.964C469.715 143.864 469.232 148.366 474.362 145.187C483.007 140.974 477.194 139.017 481.892 143.186C487.8 138.551 490.641 145.12 493.12 141.596C493.828 145.22 499.01 141.374 501.721 138.395C506.627 141.963 509.615 132.992 512.707 136.094C516.593 139.017 520.583 131.436 524.305 136.261C528.044 138.395 530.307 137.383 534.055 137.383C537.346 137.583 540.628 136.95 543.918 140.129C547.217 140.618 550.507 142.141 553.798 142.841C557.693 147.555 561.709 149.534 565.837 144.509C568.169 142.419 569.965 147.41 572.668 140.863C574.585 133.27 576.52 141.874 578.446 140.474C581.779 140.785 585.121 139.618 588.481 138.684C593.369 136.249 596.901 137.406 601.686 136.816C607.55 135.838 611.505 136.405 617.516 135.071C624.477 134.437 627.81 136.894 633.251 140.496C635.911 142.664 639.089 142.775 642.587 144.231C643.157 134.415 642.518 146.143 643.917 134.738C647.164 139.162 650.541 134.949 653.926 135.349C657.312 138.45 660.706 137.094 663.996 135.16C665.041 139.862 668.047 131.447 669.282 135.282C672.399 133.215 675.266 140.618 678.177 132.092C681.096 127.478 684.049 130.958 687.34 128.824C688.99 131.247 690.449 125.578 692.073 128.501C698.057 130.369 701.184 129.001 706.167 131.014C709.665 136.194 713.318 130.48 717.014 136.127C720.71 139.129 724.45 147.61 728.129 140.652L728.189 140.598C729.848 139.127 730.93 138.167 732.611 143.219C737.128 144.742 742.707 144.253 747.327 144.209C751.438 146.054 749.909 148.144 754.642 146.232C760.213 145.309 765.783 155.17 771.345 146.21C775.395 148.911 779.696 144.02 783.496 146.51C788.142 142.43 792.797 149.367 797.452 146.321C802.062 147.52 806.813 147.501 811.417 146.265C815.13 148.644 817.954 149.723 821.046 144.298C822.454 144.598 823.922 139.495 825.511 141.974C828.724 141.596 833.292 141.752 836.712 141.274C841.894 136.105 847.197 130.202 852.326 139.829C855.211 144.709 854.658 137.339 856.792 137.984C859.443 132.77 861.291 136.95 864.357 135.104C868.399 145.943 872.648 131.169 876.75 131.758C882.622 133.359 888.849 137.95 894.445 132.87C899.938 137.483 905.932 137.972 911.735 137.439C914.559 131.647 915.932 138.662 918.67 138.528C921.65 137.995 924.18 137.606 927.47 141.63C933.758 143.564 938.292 144.42 945.157 146.254C950.521 142.063 955.892 146.321 961.255 146.21C965.529 149.8 969.95 149.736 973.86 148.743C974.226 148.896 975.688 144.423 976.141 144.635C983.706 141.9 983.617 142.664 986.113 143.964C990.786 143.864 990.302 148.366 995.432 145.187C1004.08 140.974 998.265 139.017 1002.96 143.186C1008.87 138.551 1011.71 145.12 1014.19 141.596C1014.9 145.22 1020.08 141.374 1022.79 138.395C1027.7 141.963 1030.68 132.992 1033.78 136.094C1037.66 139.017 1041.65 131.436 1045.38 136.261C1049.11 138.395 1051.38 137.383 1055.13 137.383C1058.42 137.583 1061.7 136.95 1064.99 140.129C1068.29 140.618 1071.58 142.141 1074.87 142.841C1078.76 147.555 1082.78 149.534 1086.91 144.509C1089.24 142.419 1091.04 147.41 1093.74 140.863C1095.66 133.27 1097.59 141.874 1099.52 140.474C1102.85 140.785 1106.19 139.618 1109.55 138.684C1114.44 136.249 1117.97 137.406 1122.76 136.816C1128.62 135.838 1132.58 136.405 1138.59 135.071C1145.55 134.437 1148.88 136.894 1154.32 140.496C1156.98 142.664 1160.16 142.775 1163.66 144.231C1164.23 134.415 1163.59 146.143 1164.99 134.738C1168.23 139.162 1171.61 134.949 1175 135.349C1178.38 138.45 1181.78 137.094 1185.07 135.16C1186.11 139.862 1189.12 131.447 1190.35 135.282C1193.47 133.215 1196.34 140.618 1199.25 132.092C1202.17 127.478 1205.12 130.958 1208.41 128.824C1210.06 131.247 1211.52 125.578 1213.14 128.501C1219.13 130.369 1222.25 129.001 1227.24 131.014C1230.73 136.194 1234.39 130.48 1238.08 136.127C1241.78 139.129 1245.52 147.61 1249.2 140.652L1249.26 140.598C1250.92 139.127 1252 138.167 1253.68 143.219C1258.2 144.742 1263.78 144.253 1268.4 144.209C1272.51 146.054 1270.98 148.144 1275.71 146.232C1281.28 145.309 1286.85 155.17 1292.41 146.21C1296.47 148.911 1300.77 144.02 1304.57 146.51C1309.21 142.43 1313.87 149.367 1318.52 146.321C1323.13 147.52 1327.88 147.501 1332.49 146.265C1336.2 148.644 1339.02 149.723 1342.12 144.298C1343.52 144.598 1344.99 139.495 1346.58 141.974C1349.79 141.596 1354.36 141.752 1357.78 141.274C1362.96 136.105 1368.27 130.202 1373.4 139.829C1376.28 144.709 1375.73 137.339 1377.86 137.984C1380.51 132.77 1382.36 136.95 1385.43 135.104C1389.47 145.943 1393.72 131.169 1397.82 131.758C1403.69 133.359 1409.92 137.95 1415.52 132.87C1421.01 137.483 1427 137.972 1432.81 137.439C1435.63 131.647 1437 138.662 1439.74 138.528C1442.72 137.995 1445.25 137.606 1448.54 141.63C1454.83 143.564 1459.36 144.42 1466.23 146.254C1471.59 142.063 1476.96 146.321 1482.33 146.21C1486.6 149.8 1491.02 149.736 1494.93 148.743C1495.3 148.896 1495.76 144.975 1496.21 145.187C1503.78 142.452 1504.69 142.664 1507.18 143.964C1511.86 143.864 1511.37 148.366 1516.5 145.187C1525.15 140.974 1519.33 139.017 1524.03 143.186C1529.94 138.551 1532.78 145.12 1535.26 141.596C1535.97 145.22 1541.15 141.374 1543.86 138.395C1548.77 141.963 1551.76 132.992 1554.85 136.094C1558.73 139.017 1562.72 131.436 1566.45 136.261C1570.18 138.395 1572.45 137.383 1576.2 137.383C1579.49 137.583 1582.77 136.95 1586.06 140.129C1589.36 140.618 1592.65 142.141 1595.94 142.841C1599.83 147.555 1603.85 149.534 1607.98 144.509C1610.31 142.419 1612.11 147.41 1614.81 140.863C1616.73 133.27 1618.66 141.874 1620.59 140.474C1623.92 140.785 1627.26 139.618 1630.62 138.684C1635.51 136.249 1639.04 137.406 1643.83 136.816C1649.69 135.838 1653.65 136.405 1659.66 135.071C1666.62 134.437 1669.95 136.894 1675.39 140.496C1678.05 142.664 1681.23 142.775 1684.73 144.231C1685.3 134.415 1684.66 146.143 1686.06 134.738C1689.3 139.162 1692.68 134.949 1696.07 135.349C1699.45 138.45 1702.85 137.094 1706.14 135.16C1707.18 139.862 1710.19 131.447 1711.42 135.282C1714.54 133.215 1717.41 140.618 1720.32 132.092C1723.24 127.478 1726.19 130.958 1729.48 128.824C1731.13 131.247 1732.59 125.578 1734.21 128.501C1740.2 130.369 1743.32 129.001 1748.31 131.014C1751.8 136.194 1755.46 130.48 1759.15 136.127C1762.85 139.129 1766.59 147.61 1770.27 140.652L1770.33 140.598C1771.99 139.127 1773.07 138.167 1774.75 143.219C1779.27 144.742 1784.85 144.253 1789.47 144.209C1793.58 146.054 1792.05 148.144 1796.78 146.232C1802.35 145.309 1807.92 155.17 1813.48 146.21C1817.54 148.911 1821.84 144.02 1825.64 146.51C1830.28 142.43 1834.94 149.367 1839.59 146.321C1844.2 147.52 1848.95 147.501 1853.56 146.265C1857.27 148.644 1860.09 149.723 1863.19 144.298C1864.59 144.598 1866.06 139.495 1867.65 141.974C1870.86 141.596 1875.43 141.752 1878.85 141.274C1884.03 136.105 1889.34 130.202 1894.47 139.829C1897.35 144.709 1896.8 137.339 1898.93 137.984C1901.58 132.77 1903.43 136.95 1906.5 135.104C1910.54 145.943 1914.79 131.169 1918.89 131.758C1924.76 133.359 1930.99 137.95 1936.59 132.87C1942.08 137.483 1948.07 137.972 1953.88 137.439C1956.7 131.647 1958.07 138.662 1960.81 138.528C1963.79 137.995 1966.32 137.606 1969.61 141.63C1975.9 143.564 1980.43 144.42 1987.3 146.254C1992.66 142.063 1998.03 146.321 2003.4 146.21C2007.67 149.8 2012.09 149.736 2016 148.743V4.15387C2015.7 4.26636 2015.39 4.3795 2015.06 4.49636C2012.24 3.09565 2007.14 2.91785 2001.62 4.50742C1999.87 1.63928 2000.24 6.37507 1995.35 4.40739C1988.63 4.32961 1989.06 3.75159 1990.52 7.5756C1991.6 7.67563 1989.76 9.27638 1988.29 9.88771C1979.09 7.1309 1977.56 9.00961 1978.01 10.1435C1980.65 15.2127 1972.66 8.33156 1967.7 10.1324C1961.89 10.477 1959.37 9.5321 1955.34 10.2213C1950.37 8.22036 1947.97 9.4655 1944.39 7.26422C1943.83 9.1986 1943.15 6.86413 1942.35 4.6185C1941.15 3.90715 1938.6 4.41845 1937.34 4.49636C1932.42 8.53161 1930.67 8.29814 1926.14 9.6766C1922.13 12.9338 1918 10.7994 1914.05 10.5215C1910.3 9.89889 1908.47 11.3551 1904.38 12.2445C1901 10.5771 1897.61 15.0015 1894.22 12.2445C1889.59 16.4355 1883.63 20.1261 1879.22 12.0556C1877.04 14.2343 1875.83 10.2324 1873.45 9.95456C1871.73 9.10976 1869.54 7.55336 1867.76 10.0323C1864.75 12.5892 1861.74 14.3233 1858.72 10.0323C1854.06 9.2319 1849.35 7.89804 1844.7 10.0101C1840.4 11.333 1837.01 11.333 1832.82 12.2668C1828.32 10.3214 1823.41 14.1455 1819.12 11.1439C1814.94 10.5215 1809.98 14.1566 1806.45 8.97631C1803.49 5.00766 1800.83 5.88588 1797.29 3.61814C1795.48 0.249753 1793.48 1.65046 1791.64 2.29521C1789.36 -1.47327 1787.84 2.37299 1785.42 0.927929C1782.06 -0.00966002 1778.6 -0.238707 1775.18 0.249753C1774.54 0.216454 1773.54 -0.394997 1772.2 2.36194C1770.8 0.761182 1769.41 2.52868 1768.01 3.24016C1764.56 2.26191 1761.24 4.15168 1757.82 3.37361C1753.01 1.93947 1748.5 7.56442 1743.45 4.50742C1738.64 5.44118 1733.83 4.81867 1729.03 4.50742C1724.53 4.75195 1719.81 7.62009 1715.36 4.56296C1712.08 11.1773 1709.36 -0.217064 1706.22 2.23967C1700.44 -2.42927 1693.54 10.5881 1687.91 3.16225C1684.17 5.24113 1680.5 3.97388 1676.84 3.25122C1673.18 5.29667 1669.54 -0.895241 1665.84 2.23967C1662.98 -1.06199 1659.98 0.805665 1657.13 2.27297C1654.02 1.72824 1646.79 5.48566 1646.03 6.81965C1647.54 10.0879 1651.9 13.9788 1652.57 13.6786C1646.81 18.781 1640.37 12.6892 1634.71 14.0676C1631.43 16.3687 1627.7 17.3923 1623.97 17.0135C1620.37 14.7013 1616.74 15.9241 1613.05 18.9701C1609.98 11.7776 1607.43 23.9836 1604.57 17.0802C1601.85 21.5269 1597.9 12.3891 1594.86 15.3905C1592.84 16.0018 1592.43 11.4553 1590.7 17.1246C1587.61 21.7047 1585.76 21.9937 1583.37 16.6578C1578.6 18.781 1577.22 23.6279 1573.05 16.4465C1570.03 20.4263 1568.6 20.9377 1565.69 15.5128C1561.35 10.9439 1557.29 21.5935 1554.43 14.868C1548.44 6.78622 1545.03 15.535 1543.93 9.95456C1538.46 8.33156 1542.19 9.30981 1535.89 9.84335C1534.69 6.33059 1529.33 7.26422 1525.67 7.58679C1524.41 10.8216 1519.4 10.3325 1516.24 6.57512C1514.12 6.94204 1507.16 5.88588 1506.6 6.67527C1498.5 8.00912 1500.3 10.9661 1499.23 10.9773C1498.25 12.8179 1498.18 4.03481 1494.93 4.15387C1494.63 4.26636 1494.32 4.3795 1493.99 4.49636C1491.17 3.09565 1486.07 2.91785 1480.55 4.50742C1478.8 1.63928 1479.17 6.37507 1474.28 4.40739C1467.56 4.32961 1467.99 3.75159 1469.45 7.5756C1470.53 7.67563 1468.69 9.27638 1467.22 9.88771C1458.02 7.1309 1456.49 9.00961 1456.94 10.1435C1459.58 15.2127 1451.59 8.33156 1446.63 10.1324C1440.82 10.477 1438.3 9.5321 1434.26 10.2213C1429.3 8.22036 1426.9 9.4655 1423.32 7.26422C1422.76 9.1986 1422.08 6.86413 1421.28 4.6185C1420.08 3.90715 1417.53 4.41845 1416.27 4.49636C1411.35 8.53161 1409.6 8.29814 1405.07 9.6766C1401.06 12.9338 1396.93 10.7994 1392.98 10.5215C1389.23 9.89889 1387.4 11.3551 1383.31 12.2445C1379.93 10.5771 1376.54 15.0015 1373.15 12.2445C1368.52 16.4355 1362.56 20.1261 1358.15 12.0556C1355.97 14.2343 1354.76 10.2324 1352.38 9.95456C1350.66 9.10976 1348.47 7.55336 1346.69 10.0323C1343.68 12.5892 1340.67 14.3233 1337.65 10.0323C1332.99 9.2319 1328.28 7.89804 1323.63 10.0101C1319.33 11.333 1315.94 11.333 1311.75 12.2668C1307.25 10.3214 1302.34 14.1455 1298.05 11.1439C1293.87 10.5215 1288.91 14.1566 1285.38 8.97631C1282.42 5.00766 1279.76 5.88588 1276.22 3.61814C1274.41 0.249753 1272.41 1.65046 1270.57 2.29521C1268.29 -1.47327 1266.77 2.37299 1264.35 0.927929C1260.99 -0.00966002 1257.53 -0.238707 1254.11 0.249753C1253.47 0.216454 1252.47 -0.394997 1251.13 2.36194C1249.73 0.761182 1248.34 2.52868 1246.94 3.24016C1243.49 2.26191 1240.17 4.15168 1236.75 3.37361C1231.94 1.93947 1227.43 7.56442 1222.37 4.50742C1217.57 5.44118 1212.76 4.81867 1207.96 4.50742C1203.46 4.75195 1198.74 7.62009 1194.29 4.56296C1191.01 11.1773 1188.29 -0.217064 1185.15 2.23967C1179.37 -2.42927 1172.47 10.5881 1166.84 3.16225C1163.1 5.24113 1159.43 3.97388 1155.77 3.25122C1152.11 5.29667 1148.47 -0.895241 1144.77 2.23967C1141.91 -1.06199 1138.91 0.805665 1136.06 2.27297C1132.95 1.72824 1125.72 5.48566 1124.96 6.81965C1126.47 10.0879 1130.83 13.9788 1131.5 13.6786C1125.74 18.781 1119.3 12.6892 1113.64 14.0676C1110.36 16.3687 1106.63 17.3923 1102.9 17.0135C1099.3 14.7013 1095.67 15.9241 1091.98 18.9701C1088.91 11.7776 1086.36 23.9836 1083.5 17.0802C1080.78 21.5269 1076.83 12.3891 1073.79 15.3905C1071.77 16.0018 1071.36 11.4553 1069.63 17.1246C1066.54 21.7047 1064.69 21.9937 1062.3 16.6578C1057.53 18.781 1056.15 23.6279 1051.98 16.4465C1048.96 20.4263 1047.53 20.9377 1044.62 15.5128C1040.28 10.9439 1036.22 21.5935 1033.36 14.868C1027.37 6.78622 1023.96 15.535 1022.86 9.95456C1017.39 8.33156 1021.12 9.30981 1014.82 9.84335C1013.62 6.33059 1008.26 7.26422 1004.6 7.58679C1003.34 10.8216 998.334 10.3325 995.173 6.57512C993.048 6.94204 986.087 5.88588 985.535 6.67527C977.425 8.00912 979.23 10.9661 978.159 10.9773C977.178 12.8179 977.109 4.03481 973.86 4.15387C973.556 4.26636 973.249 4.3795 972.923 4.49636C970.099 3.09565 964.995 2.91785 959.476 4.50742C957.732 1.63928 958.103 6.37507 953.206 4.40739C946.487 4.32961 946.919 3.75159 948.379 7.5756C949.458 7.67563 947.619 9.27638 946.151 9.88771C936.953 7.1309 935.416 9.00961 935.865 10.1435C938.508 15.2127 930.519 8.33156 925.562 10.1324C919.75 10.477 917.228 9.5321 913.195 10.2213C908.229 8.22036 905.828 9.4655 902.253 7.26422C901.691 9.1986 901.009 6.86413 900.214 4.6185C899.005 3.90715 896.458 4.41845 895.197 4.49636C890.283 8.53161 888.53 8.29814 884.004 9.6766C879.988 12.9338 875.86 10.7994 871.905 10.5215C868.157 9.89889 866.326 11.3551 862.241 12.2445C858.856 10.5771 855.47 15.0015 852.085 12.2445C847.447 16.4355 841.488 20.1261 837.084 12.0556C834.899 14.2343 833.69 10.2324 831.315 9.95456C829.587 9.10976 827.402 7.55336 825.623 10.0323C822.609 12.5892 819.595 14.3233 816.581 10.0323C811.918 9.2319 807.211 7.89804 802.556 10.0101C798.255 11.333 794.87 11.333 790.681 12.2668C786.182 10.3214 781.268 14.1455 776.984 11.1439C772.804 10.5215 767.838 14.1566 764.315 8.97631C761.352 5.00766 758.692 5.88588 755.152 3.61814C753.338 0.249753 751.343 1.65046 749.504 2.29521C747.215 -1.47327 745.704 2.37299 743.277 0.927929C739.917 -0.00966002 736.46 -0.238707 733.043 0.249753C732.395 0.216454 731.402 -0.394997 730.063 2.36194C728.664 0.761182 727.265 2.52868 725.866 3.24016C722.42 2.26191 719.104 4.15168 715.684 3.37361C710.874 1.93947 706.357 7.56442 701.305 4.50742C696.503 5.44118 691.693 4.81867 686.891 4.50742C682.391 4.75195 677.667 7.62009 673.22 4.56296C669.938 11.1773 667.217 -0.217064 664.083 2.23967C658.296 -2.42927 651.396 10.5881 645.774 3.16225C642.026 5.24113 638.355 3.97388 634.702 3.25122C631.04 5.29667 627.404 -0.895241 623.7 2.23967C620.841 -1.06199 617.844 0.805665 614.986 2.27297C611.876 1.72824 604.648 5.48566 603.888 6.81965C605.399 10.0879 609.761 13.9788 610.434 13.6786C604.665 18.781 598.231 12.6892 592.566 14.0676C589.286 16.3687 585.556 17.3923 581.831 17.0135C578.23 14.7013 574.602 15.9241 570.906 18.9701C567.84 11.7776 565.293 23.9836 562.434 17.0802C559.705 21.5269 555.758 12.3891 552.718 15.3905C550.697 16.0018 550.291 11.4553 548.564 17.1246C545.472 21.7047 543.624 21.9937 541.232 16.6578C536.456 18.781 535.083 23.6279 530.912 16.4465C527.889 20.4263 526.456 20.9377 523.554 15.5128C519.21 10.9439 515.151 21.5935 512.292 14.868C506.298 6.78622 502.887 15.535 501.79 9.95456C496.315 8.33156 500.054 9.30981 493.75 9.84335C492.549 6.33059 487.187 7.26422 483.533 7.58679C482.272 10.8216 477.263 10.3325 474.103 6.57512C471.978 6.94204 465.017 5.88588 464.465 6.67527C456.355 8.00912 458.16 10.9661 457.089 10.9773C456.108 12.8179 456.038 4.03481 452.79 4.15387C452.486 4.26636 452.179 4.3795 451.853 4.49636C449.029 3.09565 443.925 2.91785 438.406 4.50742C436.662 1.63928 437.033 6.37507 432.136 4.40739C425.417 4.32961 425.849 3.75159 427.309 7.5756C428.388 7.67563 426.549 9.27638 425.08 9.88771C415.883 7.1309 414.346 9.00961 414.795 10.1435C417.437 15.2127 409.449 8.33156 404.492 10.1324C398.679 10.477 396.158 9.5321 392.125 10.2213C387.159 8.22036 384.758 9.4655 381.182 7.26422C380.621 9.1986 379.939 6.86413 379.144 4.6185C377.935 3.90715 375.388 4.41845 374.127 4.49636C369.213 8.53161 367.459 8.29814 362.934 9.6766C358.918 12.9338 354.79 10.7994 350.835 10.5215C347.087 9.89889 345.256 11.3551 341.171 12.2445C337.785 10.5771 334.4 15.0015 331.014 12.2445C326.377 16.4355 320.418 20.1261 316.013 12.0556C313.828 14.2343 312.619 10.2324 310.244 9.95456C308.517 9.10976 306.332 7.55336 304.553 10.0323C301.539 12.5892 298.525 14.3233 295.511 10.0323C290.847 9.2319 286.141 7.89804 281.486 10.0101C277.185 11.333 273.799 11.333 269.611 12.2668C265.111 10.3214 260.197 14.1455 255.914 11.1439C251.734 10.5215 246.768 14.1566 243.244 8.97631C240.282 5.00766 237.622 5.88588 234.082 3.61814C232.268 0.249753 230.273 1.65046 228.433 2.29521C226.145 -1.47327 224.633 2.37299 222.207 0.927929C218.846 -0.00966002 215.39 -0.238707 211.973 0.249753C211.325 0.216454 210.332 -0.394997 208.993 2.36194C207.594 0.761182 206.195 2.52868 204.796 3.24016C201.35 2.26191 198.034 4.15168 194.614 3.37361C189.803 1.93947 185.287 7.56442 180.234 4.50742C175.433 5.44118 170.622 4.81867 165.821 4.50742C161.321 4.75195 156.597 7.62009 152.149 4.56296C148.868 11.1773 146.147 -0.217064 143.012 2.23967C137.226 -2.42927 130.326 10.5881 124.703 3.16225C120.955 5.24113 117.285 3.97388 113.632 3.25122C109.97 5.29667 106.334 -0.895241 102.629 2.23967C99.7707 -1.06199 96.7739 0.805665 93.9153 2.27297C90.8062 1.72824 83.5778 5.48566 82.8177 6.81965C84.3291 10.0879 88.6903 13.9788 89.364 13.6786C83.595 18.781 77.1611 12.6892 71.4956 14.0676C68.2158 16.3687 64.4857 17.3923 60.7609 17.0135C57.1595 14.7013 53.5323 15.9241 49.8359 18.9701C46.7701 11.7776 44.2225 23.9836 41.3639 17.0802C38.6348 21.5269 34.6881 12.3891 31.6481 15.3905C29.6272 16.0018 29.2212 11.4553 27.494 17.1246C24.4023 21.7047 22.5541 21.9937 20.1619 16.6578C15.3861 18.781 14.0129 23.6279 9.84152 16.4465C6.81882 20.4263 5.38532 20.9377 2.48353 15.5128C-1.86056 10.9439 -5.91961 21.5935 -8.77819 14.868C-14.7717 6.78622 -18.1831 15.535 -19.2798 9.95456C-24.7552 8.33156 -21.0157 9.30981 -27.3202 9.84335C-28.5206 6.33059 -33.8837 7.26422 -37.5368 7.58679C-38.7977 10.8216 -43.8068 10.3325 -46.9676 6.57512C-49.0921 6.94204 -56.053 5.88588 -56.6056 6.67527C-64.715 8.00912 -62.9101 10.9661 -63.9809 10.9773C-64.962 12.8179 -65.7512 11.7525 -69 11.8716V143.486Z" fill="#0A0A0A"/>
</svg>
